<mxfile host="app.diagrams.net" modified="2023-05-27T10:37:04.559Z" agent="Mozilla/5.0 (Macintosh; Intel Mac OS X 10_15_7) AppleWebKit/537.36 (KHTML, like Gecko) Chrome/113.0.0.0 Safari/537.36" version="21.3.4" etag="aiyq5pRqqxoDezgxnSzb" type="github">
  <diagram name="第1頁" id="agX708l7fETPgRbeHtEt">
    <mxGraphModel>
      <root>
        <mxCell id="0" />
        <mxCell id="1" parent="0" />
      </root>
    </mxGraphModel>
  </diagram>
</mxfile>
